<svg width="272" height="395" viewBox="0 0 272 395" fill="#52D88A" xmlns="http://www.w3.org/2000/svg">
<rect x="92" y="64" width="114" height="167" fill="#52D88A"/>
<path d="M135.996 0C61.0082 0 0 61.1008 0 136.21C0 166.911 21.5041 217.853 63.9046 287.632C94.9137 338.659 126.361 381.809 126.677 382.233L135.996 395L145.323 382.233C145.639 381.809 177.086 338.659 208.095 287.632C250.495 217.853 272 166.911 272 136.21C272 61.1008 210.992 0 135.996 0ZM149.76 156.705H122.764V216.302H99.6581V68.4368H149.76C174.053 68.4368 193.824 88.2378 193.824 112.575C193.824 136.905 174.052 156.705 149.76 156.705Z" fill="#52D88A"/>
<path d="M154.86 83.42C159.54 83.42 163.92 84.32 168 86.12C172.08 87.8 175.56 90.14 178.44 93.14C181.44 96.14 183.78 99.68 185.46 103.76C187.26 107.84 188.16 112.16 188.16 116.72V122.12C188.16 126.68 187.26 131 185.46 135.08C183.78 139.04 181.44 142.58 178.44 145.7C175.56 148.7 172.08 151.04 168 152.72C163.92 154.4 159.54 155.24 154.86 155.24H123.9V206H102.3V83.42H154.86ZM123.9 104.84V133.82H151.26C156.42 133.82 160.2 132.56 162.6 130.04C165 127.52 166.2 123.98 166.2 119.42C166.2 115.1 165 111.62 162.6 108.98C160.2 106.22 156.42 104.84 151.26 104.84H123.9Z" fill="white"/>
</svg>
